<svg xmlns="http://www.w3.org/2000/svg" width="192" height="192" viewBox="0 0 192 192">
  <filter id="paper" x="-20%" y="-20%" width="140%" height="140%" color-interpolation-filters="sRGB">
    <feTurbulence type="fractalNoise" baseFrequency=".48 .86" numOctaves="4" seed="27" stitchTiles="stitch"/>
    <feColorMatrix values=".28 0 0 0 .48  0 .31 0 0 .51  0 0 .37 0 .56  0 0 0 .16 0"/>
    <feComponentTransfer>
      <feFuncA type="table" tableValues="0 .13"/>
    </feComponentTransfer>
  </filter>
  <rect width="192" height="192" fill="#9ba7ad" filter="url(#paper)" opacity=".24"/>
  <g fill="none" stroke="#c1ccd0" stroke-linecap="round">
    <path d="M8 24c19-3 39-1 58-4s42-2 62 0 38 0 56-4" opacity=".038"/>
    <path d="M-4 77c22 2 42-3 63 0s41 1 61-1 47 4 76 0" opacity=".03"/>
    <path d="M2 136c28-4 50 2 74-2s55 2 79-2 27 1 41 0" opacity=".034"/>
    <path d="M31-5c-2 26 2 49-1 73s3 52 0 78 1 38 0 51" opacity=".024"/>
    <path d="M119-3c3 26-2 49 1 75s-2 48 0 73-2 36-1 50" opacity=".022"/>
  </g>
</svg>
